<svg width="170" height="61" viewBox="0 0 170 61" fill="none" xmlns="http://www.w3.org/2000/svg">
<rect width="170" height="61" fill="white"/>
<path d="M13.32 32.84C13.32 30.6 13.76 28.6133 14.64 26.88C15.5467 25.1467 16.7733 23.8133 18.32 22.88C19.8667 21.9467 21.5867 21.48 23.48 21.48C24.92 21.48 26.2933 21.8 27.6 22.44C28.9067 23.0533 29.9467 23.88 30.72 24.92V14.4H36.4V44H30.72V40.72C30.0267 41.8133 29.0533 42.6933 27.8 43.36C26.5467 44.0267 25.0933 44.36 23.44 44.36C21.5733 44.36 19.8667 43.88 18.32 42.92C16.7733 41.96 15.5467 40.6133 14.64 38.88C13.76 37.12 13.32 35.1067 13.32 32.84ZM30.76 32.92C30.76 31.56 30.4933 30.4 29.96 29.44C29.4267 28.4533 28.7067 27.7067 27.8 27.2C26.8933 26.6667 25.92 26.4 24.88 26.4C23.84 26.4 22.88 26.6533 22 27.16C21.12 27.6667 20.4 28.4133 19.84 29.4C19.3067 30.36 19.04 31.5067 19.04 32.84C19.04 34.1733 19.3067 35.3467 19.84 36.36C20.4 37.3467 21.12 38.1067 22 38.64C22.9067 39.1733 23.8667 39.44 24.88 39.44C25.92 39.44 26.8933 39.1867 27.8 38.68C28.7067 38.1467 29.4267 37.4 29.96 36.44C30.4933 35.4533 30.76 34.28 30.76 32.92ZM51.7094 44.36C49.576 44.36 47.656 43.8933 45.9494 42.96C44.2427 42 42.896 40.6533 41.9094 38.92C40.9494 37.1867 40.4694 35.1867 40.4694 32.92C40.4694 30.6533 40.9627 28.6533 41.9494 26.92C42.9627 25.1867 44.336 23.8533 46.0694 22.92C47.8027 21.96 49.736 21.48 51.8694 21.48C54.0027 21.48 55.936 21.96 57.6694 22.92C59.4027 23.8533 60.7627 25.1867 61.7494 26.92C62.7627 28.6533 63.2694 30.6533 63.2694 32.92C63.2694 35.1867 62.7494 37.1867 61.7094 38.92C60.696 40.6533 59.3094 42 57.5494 42.96C55.816 43.8933 53.8694 44.36 51.7094 44.36ZM51.7094 39.48C52.7227 39.48 53.6694 39.24 54.5494 38.76C55.456 38.2533 56.176 37.5067 56.7094 36.52C57.2427 35.5333 57.5094 34.3333 57.5094 32.92C57.5094 30.8133 56.9494 29.2 55.8294 28.08C54.736 26.9333 53.3894 26.36 51.7894 26.36C50.1894 26.36 48.8427 26.9333 47.7494 28.08C46.6827 29.2 46.1494 30.8133 46.1494 32.92C46.1494 35.0267 46.6694 36.6533 47.7094 37.8C48.776 38.92 50.1094 39.48 51.7094 39.48Z" fill="#0066FF"/>
<path d="M65.9372 32.84C65.9372 30.6 66.3772 28.6133 67.2572 26.88C68.1639 25.1467 69.3905 23.8133 70.9372 22.88C72.4839 21.9467 74.2039 21.48 76.0972 21.48C77.5372 21.48 78.9105 21.8 80.2172 22.44C81.5239 23.0533 82.5639 23.88 83.3372 24.92V14.4H89.0172V44H83.3372V40.72C82.6439 41.8133 81.6705 42.6933 80.4172 43.36C79.1639 44.0267 77.7105 44.36 76.0572 44.36C74.1905 44.36 72.4839 43.88 70.9372 42.92C69.3905 41.96 68.1639 40.6133 67.2572 38.88C66.3772 37.12 65.9372 35.1067 65.9372 32.84ZM83.3772 32.92C83.3772 31.56 83.1105 30.4 82.5772 29.44C82.0439 28.4533 81.3239 27.7067 80.4172 27.2C79.5105 26.6667 78.5372 26.4 77.4972 26.4C76.4572 26.4 75.4972 26.6533 74.6172 27.16C73.7372 27.6667 73.0172 28.4133 72.4572 29.4C71.9239 30.36 71.6572 31.5067 71.6572 32.84C71.6572 34.1733 71.9239 35.3467 72.4572 36.36C73.0172 37.3467 73.7372 38.1067 74.6172 38.64C75.5239 39.1733 76.4839 39.44 77.4972 39.44C78.5372 39.44 79.5105 39.1867 80.4172 38.68C81.3239 38.1467 82.0439 37.4 82.5772 36.44C83.1105 35.4533 83.3772 34.28 83.3772 32.92ZM93.0466 32.84C93.0466 30.6 93.4866 28.6133 94.3666 26.88C95.2732 25.1467 96.4866 23.8133 98.0066 22.88C99.5532 21.9467 101.273 21.48 103.167 21.48C104.82 21.48 106.26 21.8133 107.487 22.48C108.74 23.1467 109.74 23.9867 110.487 25V21.84H116.127V44H110.487V40.76C109.767 41.8 108.767 42.6667 107.487 43.36C106.233 44.0267 104.78 44.36 103.127 44.36C101.26 44.36 99.5532 43.88 98.0066 42.92C96.4866 41.96 95.2732 40.6133 94.3666 38.88C93.4866 37.12 93.0466 35.1067 93.0466 32.84ZM110.487 32.92C110.487 31.56 110.22 30.4 109.687 29.44C109.153 28.4533 108.433 27.7067 107.527 27.2C106.62 26.6667 105.647 26.4 104.607 26.4C103.567 26.4 102.607 26.6533 101.727 27.16C100.847 27.6667 100.127 28.4133 99.5666 29.4C99.0332 30.36 98.7666 31.5067 98.7666 32.84C98.7666 34.1733 99.0332 35.3467 99.5666 36.36C100.127 37.3467 100.847 38.1067 101.727 38.64C102.633 39.1733 103.593 39.44 104.607 39.44C105.647 39.44 106.62 39.1867 107.527 38.68C108.433 38.1467 109.153 37.4 109.687 36.44C110.22 35.4533 110.487 34.28 110.487 32.92ZM127.196 14.4V44H121.596V14.4H127.196ZM131.289 32.84C131.289 30.6 131.729 28.6133 132.609 26.88C133.515 25.1467 134.729 23.8133 136.249 22.88C137.795 21.9467 139.515 21.48 141.409 21.48C143.062 21.48 144.502 21.8133 145.729 22.48C146.982 23.1467 147.982 23.9867 148.729 25V21.84H154.369V44H148.729V40.76C148.009 41.8 147.009 42.6667 145.729 43.36C144.475 44.0267 143.022 44.36 141.369 44.36C139.502 44.36 137.795 43.88 136.249 42.92C134.729 41.96 133.515 40.6133 132.609 38.88C131.729 37.12 131.289 35.1067 131.289 32.84ZM148.729 32.92C148.729 31.56 148.462 30.4 147.929 29.44C147.395 28.4533 146.675 27.7067 145.769 27.2C144.862 26.6667 143.889 26.4 142.849 26.4C141.809 26.4 140.849 26.6533 139.969 27.16C139.089 27.6667 138.369 28.4133 137.809 29.4C137.275 30.36 137.009 31.5067 137.009 32.84C137.009 34.1733 137.275 35.3467 137.809 36.36C138.369 37.3467 139.089 38.1067 139.969 38.64C140.875 39.1733 141.835 39.44 142.849 39.44C143.889 39.44 144.862 39.1867 145.769 38.68C146.675 38.1467 147.395 37.4 147.929 36.44C148.462 35.4533 148.729 34.28 148.729 32.92Z" fill="black"/>
</svg>
