<svg width="164" height="164" viewBox="0 0 164 164" fill="none" xmlns="http://www.w3.org/2000/svg">
<rect width="164" height="164" fill="white"/>
<path d="M10.32 84.84C10.32 82.6 10.76 80.6133 11.64 78.88C12.5467 77.1467 13.7733 75.8133 15.32 74.88C16.8667 73.9467 18.5867 73.48 20.48 73.48C21.92 73.48 23.2933 73.8 24.6 74.44C25.9067 75.0533 26.9467 75.88 27.72 76.92V66.4H33.4V96H27.72V92.72C27.0267 93.8133 26.0533 94.6933 24.8 95.36C23.5467 96.0267 22.0933 96.36 20.44 96.36C18.5733 96.36 16.8667 95.88 15.32 94.92C13.7733 93.96 12.5467 92.6133 11.64 90.88C10.76 89.12 10.32 87.1067 10.32 84.84ZM27.76 84.92C27.76 83.56 27.4933 82.4 26.96 81.44C26.4267 80.4533 25.7067 79.7067 24.8 79.2C23.8933 78.6667 22.92 78.4 21.88 78.4C20.84 78.4 19.88 78.6533 19 79.16C18.12 79.6667 17.4 80.4133 16.84 81.4C16.3067 82.36 16.04 83.5067 16.04 84.84C16.04 86.1733 16.3067 87.3467 16.84 88.36C17.4 89.3467 18.12 90.1067 19 90.64C19.9067 91.1733 20.8667 91.44 21.88 91.44C22.92 91.44 23.8933 91.1867 24.8 90.68C25.7067 90.1467 26.4267 89.4 26.96 88.44C27.4933 87.4533 27.76 86.28 27.76 84.92ZM48.7094 96.36C46.576 96.36 44.656 95.8933 42.9494 94.96C41.2427 94 39.896 92.6533 38.9094 90.92C37.9494 89.1867 37.4694 87.1867 37.4694 84.92C37.4694 82.6533 37.9627 80.6533 38.9494 78.92C39.9627 77.1867 41.336 75.8533 43.0694 74.92C44.8027 73.96 46.736 73.48 48.8694 73.48C51.0027 73.48 52.936 73.96 54.6694 74.92C56.4027 75.8533 57.7627 77.1867 58.7494 78.92C59.7627 80.6533 60.2694 82.6533 60.2694 84.92C60.2694 87.1867 59.7494 89.1867 58.7094 90.92C57.696 92.6533 56.3094 94 54.5494 94.96C52.816 95.8933 50.8694 96.36 48.7094 96.36ZM48.7094 91.48C49.7227 91.48 50.6694 91.24 51.5494 90.76C52.456 90.2533 53.176 89.5067 53.7094 88.52C54.2427 87.5333 54.5094 86.3333 54.5094 84.92C54.5094 82.8133 53.9494 81.2 52.8294 80.08C51.736 78.9333 50.3894 78.36 48.7894 78.36C47.1894 78.36 45.8427 78.9333 44.7494 80.08C43.6827 81.2 43.1494 82.8133 43.1494 84.92C43.1494 87.0267 43.6694 88.6533 44.7094 89.8C45.776 90.92 47.1094 91.48 48.7094 91.48ZM62.9372 84.84C62.9372 82.6 63.3772 80.6133 64.2572 78.88C65.1639 77.1467 66.3905 75.8133 67.9372 74.88C69.4839 73.9467 71.2039 73.48 73.0972 73.48C74.5372 73.48 75.9105 73.8 77.2172 74.44C78.5239 75.0533 79.5639 75.88 80.3372 76.92V66.4H86.0172V96H80.3372V92.72C79.6439 93.8133 78.6705 94.6933 77.4172 95.36C76.1639 96.0267 74.7105 96.36 73.0572 96.36C71.1905 96.36 69.4839 95.88 67.9372 94.92C66.3905 93.96 65.1639 92.6133 64.2572 90.88C63.3772 89.12 62.9372 87.1067 62.9372 84.84ZM80.3772 84.92C80.3772 83.56 80.1105 82.4 79.5772 81.44C79.0439 80.4533 78.3239 79.7067 77.4172 79.2C76.5105 78.6667 75.5372 78.4 74.4972 78.4C73.4572 78.4 72.4972 78.6533 71.6172 79.16C70.7372 79.6667 70.0172 80.4133 69.4572 81.4C68.9239 82.36 68.6572 83.5067 68.6572 84.84C68.6572 86.1733 68.9239 87.3467 69.4572 88.36C70.0172 89.3467 70.7372 90.1067 71.6172 90.64C72.5239 91.1733 73.4839 91.44 74.4972 91.44C75.5372 91.44 76.5105 91.1867 77.4172 90.68C78.3239 90.1467 79.0439 89.4 79.5772 88.44C80.1105 87.4533 80.3772 86.28 80.3772 84.92ZM90.0466 84.84C90.0466 82.6 90.4866 80.6133 91.3666 78.88C92.2732 77.1467 93.4866 75.8133 95.0066 74.88C96.5532 73.9467 98.2732 73.48 100.167 73.48C101.82 73.48 103.26 73.8133 104.487 74.48C105.74 75.1467 106.74 75.9867 107.487 77V73.84H113.127V96H107.487V92.76C106.767 93.8 105.767 94.6667 104.487 95.36C103.233 96.0267 101.78 96.36 100.127 96.36C98.2599 96.36 96.5532 95.88 95.0066 94.92C93.4866 93.96 92.2732 92.6133 91.3666 90.88C90.4866 89.12 90.0466 87.1067 90.0466 84.84ZM107.487 84.92C107.487 83.56 107.22 82.4 106.687 81.44C106.153 80.4533 105.433 79.7067 104.527 79.2C103.62 78.6667 102.647 78.4 101.607 78.4C100.567 78.4 99.6066 78.6533 98.7266 79.16C97.8466 79.6667 97.1266 80.4133 96.5666 81.4C96.0332 82.36 95.7666 83.5067 95.7666 84.84C95.7666 86.1733 96.0332 87.3467 96.5666 88.36C97.1266 89.3467 97.8466 90.1067 98.7266 90.64C99.6332 91.1733 100.593 91.44 101.607 91.44C102.647 91.44 103.62 91.1867 104.527 90.68C105.433 90.1467 106.153 89.4 106.687 88.44C107.22 87.4533 107.487 86.28 107.487 84.92ZM124.196 66.4V96H118.596V66.4H124.196ZM128.289 84.84C128.289 82.6 128.729 80.6133 129.609 78.88C130.515 77.1467 131.729 75.8133 133.249 74.88C134.795 73.9467 136.515 73.48 138.409 73.48C140.062 73.48 141.502 73.8133 142.729 74.48C143.982 75.1467 144.982 75.9867 145.729 77V73.84H151.369V96H145.729V92.76C145.009 93.8 144.009 94.6667 142.729 95.36C141.475 96.0267 140.022 96.36 138.369 96.36C136.502 96.36 134.795 95.88 133.249 94.92C131.729 93.96 130.515 92.6133 129.609 90.88C128.729 89.12 128.289 87.1067 128.289 84.84ZM145.729 84.92C145.729 83.56 145.462 82.4 144.929 81.44C144.395 80.4533 143.675 79.7067 142.769 79.2C141.862 78.6667 140.889 78.4 139.849 78.4C138.809 78.4 137.849 78.6533 136.969 79.16C136.089 79.6667 135.369 80.4133 134.809 81.4C134.275 82.36 134.009 83.5067 134.009 84.84C134.009 86.1733 134.275 87.3467 134.809 88.36C135.369 89.3467 136.089 90.1067 136.969 90.64C137.875 91.1733 138.835 91.44 139.849 91.44C140.889 91.44 141.862 91.1867 142.769 90.68C143.675 90.1467 144.395 89.4 144.929 88.44C145.462 87.4533 145.729 86.28 145.729 84.92Z" fill="#EEEEEE"/>
</svg>
